<svg width="165" height="98" viewBox="0 0 165 98" fill="none" xmlns="http://www.w3.org/2000/svg">
<path d="M160.381 5.03998C161.421 6.71998 162.341 9.23998 163.141 12.6C164.021 15.96 164.461 19.64 164.461 23.64C164.461 25 164.341 26.4 164.101 27.84C163.941 29.28 163.621 30.6 163.141 31.8C162.661 33 162.021 34 161.221 34.8C160.421 35.6 159.381 36 158.101 36C155.621 36 153.541 35.36 151.861 34.08C150.181 32.8 148.701 31.2 147.421 29.28C146.141 27.28 144.981 25.16 143.941 22.92C142.981 20.6 141.941 18.48 140.821 16.56C139.701 14.56 138.421 12.92 136.981 11.64C135.621 10.36 133.941 9.71999 131.941 9.71999C131.221 9.71999 130.261 9.91999 129.061 10.32C127.861 10.64 126.661 11.32 125.461 12.36C124.341 13.32 123.341 14.64 122.461 16.32C121.581 18 121.061 20.16 120.901 22.8V60.24C120.901 64.08 121.421 67.8 122.461 71.4C123.581 74.92 125.101 78.04 127.021 80.76C128.941 83.48 131.221 85.68 133.861 87.36C136.581 88.96 139.541 89.76 142.741 89.76C144.341 89.76 146.261 89.2 148.501 88.08C150.821 86.88 153.021 85.04 155.101 82.56C157.181 80 158.981 76.76 160.501 72.84C162.021 68.84 162.781 64.04 162.781 58.44H163.741V91.68H142.861C137.341 91.68 132.221 90.84 127.501 89.16C122.781 87.4 118.661 84.96 115.141 81.84C111.701 78.64 108.981 74.84 106.981 70.44C105.061 66.04 104.101 61.16 104.101 55.8V21.36C104.101 19.6 104.301 17.64 104.701 15.48C105.181 13.32 105.981 11.28 107.101 9.35998C108.301 7.43998 109.941 5.83999 112.021 4.55999C114.101 3.27999 116.781 2.63998 120.061 2.63998C124.221 2.63998 127.661 3.47998 130.381 5.15999C133.181 6.83998 135.701 8.71998 137.941 10.8C140.261 12.88 142.501 14.8 144.661 16.56C146.901 18.24 149.461 19.08 152.341 19.08C153.701 19.08 154.941 18.64 156.061 17.76C157.181 16.88 158.061 15.76 158.701 14.4C159.341 13.04 159.741 11.56 159.901 9.95998C160.141 8.27998 160.061 6.71999 159.661 5.27999L160.381 5.03998Z" fill="black"/>
<path d="M88.8436 0C91.1636 0.160003 93.2036 0.560005 94.9636 1.20001C96.8036 1.76 98.2836 2.64 99.4036 3.84C100.604 5.04 101.404 6.56001 101.804 8.40001C102.284 10.24 102.324 12.44 101.924 15C101.444 17.88 100.284 21.52 98.4436 25.92C96.6836 30.24 94.2836 34.88 91.2436 39.84C88.2836 44.72 84.7636 49.76 80.6836 54.96C76.6036 60.08 72.0036 64.92 66.8836 69.48C61.8436 73.96 56.3236 77.96 50.3236 81.48C44.3236 85 37.8836 87.6 31.0036 89.28L18.0436 92.52C17.8036 92.92 17.7236 93.36 17.8036 93.84C17.9636 94.4 18.0836 94.96 18.1636 95.52C18.3236 96.08 18.3636 96.56 18.2836 96.96C18.2836 97.44 18.0436 97.76 17.5636 97.92C16.6836 98.16 16.0036 97.84 15.5236 96.96C15.0436 96.08 15.1236 95.08 15.7636 93.96L28.6036 71.64L35.2036 70.8C37.2036 67.84 39.0836 64.88 40.8436 61.92C42.6836 58.96 44.2836 55.92 45.6436 52.8C47.0036 49.6 48.0836 46.28 48.8836 42.84C49.6836 39.4 50.0836 35.76 50.0836 31.92C50.0836 28.48 49.6036 25.48 48.6436 22.92C47.7636 20.36 46.4836 18.24 44.8036 16.56C43.2036 14.8 41.3236 13.48 39.1636 12.6C37.0036 11.72 34.6836 11.28 32.2036 11.28C27.1636 11.28 22.0436 12.96 16.8436 16.32C14.2036 18 12.0036 20.08 10.2436 22.56C8.56364 24.96 7.36364 27.48 6.64364 30.12C5.92364 32.68 5.72364 35.24 6.04364 37.8C6.36364 40.28 7.20364 42.52 8.56364 44.52C9.92364 46.52 11.8436 48.12 14.3236 49.32C16.8036 50.52 19.8436 51.04 23.4436 50.88C25.6036 50.8 27.8036 50.16 30.0436 48.96C32.3636 47.68 34.5636 46.08 36.6436 44.16C38.8036 42.24 40.7636 40.16 42.5236 37.92C44.3636 35.6 45.8836 33.36 47.0836 31.2L47.6836 32.04C46.6436 33.8 45.2436 35.84 43.4836 38.16C41.7236 40.48 39.8036 42.8 37.7236 45.12C35.7236 47.44 33.6436 49.68 31.4836 51.84C29.4036 54 27.4436 55.8 25.6036 57.24C22.2436 59.96 18.4836 61.32 14.3236 61.32C12.4036 61.32 10.5236 60.96 8.68364 60.24C6.92364 59.52 5.36364 58.44 4.00364 57C2.72364 55.48 1.68364 53.56 0.883636 51.24C0.163636 48.84 -0.116364 46.04 0.0436363 42.84C0.203636 39.48 0.763636 36.44 1.72364 33.72C2.68364 30.92 3.96364 28.36 5.56364 26.04C7.24364 23.64 9.24364 21.4 11.5636 19.32C13.8836 17.16 16.4436 15.08 19.2436 13.08C20.9236 11.88 22.8836 10.72 25.1236 9.60001C27.3636 8.48001 29.7236 7.52001 32.2036 6.72001C34.6836 5.84 37.2036 5.16 39.7636 4.68C42.4036 4.20001 44.9636 3.96001 47.4436 3.96001C49.8436 3.96001 52.1236 4.24 54.2836 4.8C56.5236 5.36 58.4436 6.28 60.0436 7.56C61.6436 8.84 62.9236 10.56 63.8836 12.72C64.8436 14.8 65.3236 17.36 65.3236 20.4C65.3236 25.2 64.4036 29.8 62.5636 34.2C60.8036 38.6 58.5236 42.84 55.7236 46.92C53.0036 51 49.9636 55 46.6036 58.92C43.2436 62.84 40.0036 66.72 36.8836 70.56C40.2436 70 43.8836 69.16 47.8036 68.04C51.8036 66.92 55.8036 65.52 59.8036 63.84C63.8836 62.08 67.7636 60.04 71.4436 57.72C75.2036 55.4 78.5236 52.84 81.4036 50.04C84.3636 47.16 86.6836 44.04 88.3636 40.68C90.1236 37.24 91.0036 33.6 91.0036 29.76C91.0036 28.4 90.7236 27.04 90.1636 25.68C89.6036 24.32 88.8436 23.12 87.8836 22.08C87.0036 20.96 85.9236 20.04 84.6436 19.32C83.4436 18.6 82.1636 18.24 80.8036 18.24C79.6036 18.24 78.3636 18.6 77.0836 19.32C75.8836 19.96 74.7236 21.08 73.6036 22.68L73.1236 22.44L74.9236 20.16L88.8436 0Z" fill="black"/>
</svg>
